<svg width="21" height="21" viewBox="0 0 21 21" fill="none" xmlns="http://www.w3.org/2000/svg">
<g id="Icon" clip-path="url(#clip0_749_16153)">
<path id="Vector" d="M20.3795 10.5301C20.3795 10.0412 20.2129 9.63006 19.8795 9.29673C19.5462 8.96339 19.1351 8.79673 18.6462 8.79673H3.51285V3.39672C3.51285 2.95228 3.66841 2.5745 3.97952 2.26339C4.20174 2.04117 4.45729 1.90784 4.74618 1.86339C5.03507 1.81895 5.33507 1.84117 5.64618 1.93006C5.24618 2.55228 5.09063 3.24117 5.17952 3.99673C5.26841 4.75228 5.57952 5.39673 6.11285 5.93006L6.24618 6.13006C6.37952 6.21895 6.52396 6.26339 6.67952 6.26339C6.83507 6.26339 6.95729 6.21895 7.04618 6.13006L10.8462 2.33006C10.9795 2.19673 11.0462 2.05228 11.0462 1.89672C11.0462 1.74117 10.9795 1.59673 10.8462 1.46339L10.7129 1.33006C10.1351 0.752281 9.43507 0.44117 8.61285 0.396725C7.79063 0.352282 7.06841 0.574503 6.44618 1.06339C5.91285 0.752281 5.33507 0.630058 4.71285 0.696726C4.09063 0.763391 3.55729 1.01895 3.11285 1.46339C2.57952 1.99673 2.31285 2.64117 2.31285 3.39672V8.79673H2.11285C1.62396 8.79673 1.21285 8.96339 0.879517 9.29673C0.546183 9.63006 0.379517 10.0412 0.379517 10.5301C0.379517 10.9301 0.490628 11.2745 0.71285 11.5634C0.935072 11.8523 1.20174 12.0634 1.51285 12.1967V13.4634C1.51285 14.5301 1.80174 15.5078 2.37952 16.3967C2.95729 17.2856 3.69063 17.9745 4.57952 18.4634L4.04618 19.5301C3.95729 19.7078 3.94618 19.8634 4.01285 19.9967C4.07952 20.1301 4.17952 20.2412 4.31285 20.3301C4.44618 20.4189 4.59063 20.4301 4.74618 20.3634C4.90174 20.2967 5.02396 20.1967 5.11285 20.0634L5.71285 18.8634C6.15729 18.9523 6.62396 18.9967 7.11285 18.9967H13.6462C14.1351 18.9967 14.6017 18.9523 15.0462 18.8634L15.6462 20.0634C15.7351 20.1967 15.8573 20.2967 16.0129 20.3634C16.1684 20.4301 16.3129 20.4189 16.4462 20.3301C16.5795 20.2412 16.6795 20.1301 16.7462 19.9967C16.8129 19.8634 16.8017 19.7078 16.7129 19.5301L16.1795 18.4634C17.0684 17.9745 17.8017 17.2856 18.3795 16.3967C18.9573 15.5078 19.2462 14.5301 19.2462 13.4634V12.1967C19.5573 12.0634 19.824 11.8523 20.0462 11.5634C20.2684 11.2745 20.3795 10.9301 20.3795 10.5301ZM9.57952 1.93006L6.71285 4.86339C6.40174 4.41895 6.26841 3.95228 6.31285 3.46339C6.35729 2.9745 6.55729 2.55228 6.91285 2.19673C7.26841 1.84117 7.70174 1.64117 8.21285 1.59673C8.72396 1.55228 9.17952 1.66339 9.57952 1.93006ZM2.11285 9.99673H18.6462C18.7795 9.99673 18.9017 10.0523 19.0129 10.1634C19.124 10.2745 19.1795 10.4078 19.1795 10.5634C19.1795 10.7189 19.124 10.8523 19.0129 10.9634C18.9017 11.0745 18.7795 11.1301 18.6462 11.1301H2.11285C1.97952 11.1301 1.85729 11.0745 1.74618 10.9634C1.63507 10.8523 1.57952 10.7189 1.57952 10.5634C1.57952 10.4078 1.63507 10.2745 1.74618 10.1634C1.85729 10.0523 1.97952 9.99673 2.11285 9.99673ZM18.0462 13.4634C18.0462 14.2634 17.8462 14.9967 17.4462 15.6634C17.0462 16.3301 16.5129 16.8634 15.8462 17.2634C15.1795 17.6634 14.4462 17.8634 13.6462 17.8634H7.11285C6.31285 17.8634 5.57952 17.6634 4.91285 17.2634C4.24618 16.8634 3.71285 16.3301 3.31285 15.6634C2.91285 14.9967 2.71285 14.2634 2.71285 13.4634V12.3301H18.0462V13.4634ZM8.84618 6.33006C8.84618 6.50784 8.90174 6.65228 9.01285 6.76339C9.12396 6.8745 9.25729 6.93006 9.41285 6.93006C9.56841 6.93006 9.70174 6.8745 9.81285 6.76339C9.92396 6.65228 9.97952 6.50784 9.97952 6.33006C9.97952 6.15228 9.92396 6.00784 9.81285 5.89673C9.70174 5.78561 9.56841 5.73006 9.41285 5.73006C9.25729 5.73006 9.12396 5.78561 9.01285 5.89673C8.90174 6.00784 8.84618 6.15228 8.84618 6.33006ZM10.5129 4.66339C10.5129 4.84117 10.5684 4.98561 10.6795 5.09673C10.7906 5.20784 10.924 5.26339 11.0795 5.26339C11.2351 5.26339 11.3684 5.20784 11.4795 5.09673C11.5906 4.98561 11.6462 4.84117 11.6462 4.66339C11.6462 4.48561 11.5906 4.34117 11.4795 4.23006C11.3684 4.11895 11.2351 4.06339 11.0795 4.06339C10.924 4.06339 10.7906 4.11895 10.6795 4.23006C10.5684 4.34117 10.5129 4.48561 10.5129 4.66339ZM10.9129 6.73006C10.9129 6.86339 10.9684 6.99673 11.0795 7.13006C11.1906 7.26339 11.324 7.33006 11.4795 7.33006C11.6351 7.33006 11.7684 7.26339 11.8795 7.13006C11.9906 6.99673 12.0462 6.85228 12.0462 6.69673C12.0462 6.54117 11.9906 6.40784 11.8795 6.29673C11.7684 6.18561 11.6351 6.13006 11.4795 6.13006C11.324 6.13006 11.1906 6.18561 11.0795 6.29673C10.9684 6.40784 10.9129 6.55228 10.9129 6.73006Z" fill="white"/>
</g>
<defs>
<clipPath id="clip0_749_16153">
<rect width="20" height="20" fill="white" transform="matrix(1 0 0 -1 0.379517 20.3984)"/>
</clipPath>
</defs>
</svg>
