<svg width="20" height="21" viewBox="0 0 20 21" fill="none" xmlns="http://www.w3.org/2000/svg">
<g id="Icon" clip-path="url(#clip0_749_16149)">
<path id="Vector" d="M17.5333 6.66562H8.73333C8.28889 6.66562 7.86667 6.79896 7.46667 7.06562C7.37778 6.39896 7.1 5.85451 6.63333 5.43229C6.16667 5.01007 5.62222 4.79896 5 4.79896C4.51111 4.79896 4.06667 4.91007 3.66667 5.13229V4.13229C3.66667 3.95451 3.61111 3.81007 3.5 3.69896C3.38889 3.58785 3.24444 3.53229 3.06667 3.53229H0.6C0.422222 3.53229 0.277778 3.58785 0.166667 3.69896C0.0555556 3.81007 0 3.95451 0 4.13229V16.6656C0 16.8434 0.0555556 16.9878 0.166667 17.099C0.277778 17.2101 0.422222 17.2656 0.6 17.2656H3.06667C3.24444 17.2656 3.38889 17.2101 3.5 17.099C3.61111 16.9878 3.66667 16.8434 3.66667 16.6656V14.7323H16.3333V16.6656C16.3333 16.8434 16.3889 16.9878 16.5 17.099C16.6111 17.2101 16.7556 17.2656 16.9333 17.2656H19.4C19.5778 17.2656 19.7222 17.2101 19.8333 17.099C19.9444 16.9878 20 16.8434 20 16.6656V9.13229C20 8.46562 19.7556 7.88785 19.2667 7.39896C18.7778 6.91007 18.2 6.66562 17.5333 6.66562ZM5 5.93229C5.35556 5.93229 5.65556 6.06562 5.9 6.33229C6.14444 6.59896 6.26667 6.91007 6.26667 7.26562C6.26667 7.62118 6.14444 7.92118 5.9 8.16562C5.65556 8.41007 5.35556 8.53229 5 8.53229C4.64444 8.53229 4.33333 8.41007 4.06667 8.16562C3.8 7.92118 3.66667 7.62118 3.66667 7.26562C3.66667 6.91007 3.8 6.59896 4.06667 6.33229C4.33333 6.06562 4.64444 5.93229 5 5.93229ZM3.66667 9.33229C4.06667 9.59896 4.5 9.73229 4.96667 9.73229C5.43333 9.73229 5.86667 9.59896 6.26667 9.33229V11.0656H3.66667V9.33229ZM18.8 16.0656H17.4667V14.1323C17.4667 13.999 17.4111 13.8767 17.3 13.7656C17.1889 13.6545 17.0667 13.599 16.9333 13.599H3.06667C2.93333 13.599 2.81111 13.6545 2.7 13.7656C2.58889 13.8767 2.53333 13.999 2.53333 14.1323V16.0656H1.2V4.73229H2.53333V11.6656C2.53333 11.799 2.58889 11.9323 2.7 12.0656C2.81111 12.199 2.93333 12.2656 3.06667 12.2656H18.8V16.0656ZM18.8 11.0656H7.46667V9.13229C7.46667 8.77674 7.58889 8.47674 7.83333 8.23229C8.07778 7.98785 8.37778 7.86562 8.73333 7.86562H17.5333C17.8889 7.86562 18.1889 7.98785 18.4333 8.23229C18.6778 8.47674 18.8 8.77674 18.8 9.13229V11.0656Z" fill="white"/>
</g>
<defs>
<clipPath id="clip0_749_16149">
<rect width="20" height="20" fill="white" transform="matrix(1 0 0 -1 0 20.3984)"/>
</clipPath>
</defs>
</svg>
