<svg width="19" height="19" viewBox="0 0 19 19" fill="none" xmlns="http://www.w3.org/2000/svg">
<g id="Filter Icon">
<path id="Vector" d="M12.4241 4.1575C11.7441 4.1575 11.1441 4.3775 10.6241 4.8175C10.1041 5.2575 9.78414 5.7975 9.66414 6.4375H2.28414C2.12414 6.4375 1.99414 6.4875 1.89414 6.5875C1.79414 6.6875 1.74414 6.8175 1.74414 6.9775C1.74414 7.1375 1.79414 7.2775 1.89414 7.3975C1.99414 7.5175 2.12414 7.5775 2.28414 7.5775H9.66414C9.78414 8.2175 10.1041 8.7475 10.6241 9.1675C11.1441 9.5875 11.7441 9.7975 12.4241 9.7975C13.1041 9.7975 13.6941 9.5875 14.1941 9.1675C14.6941 8.7475 15.0241 8.2175 15.1841 7.5775H16.9241C17.0841 7.5775 17.2141 7.5175 17.3141 7.3975C17.4141 7.2775 17.4641 7.1375 17.4641 6.9775C17.4641 6.8175 17.4141 6.6875 17.3141 6.5875C17.2141 6.4875 17.0841 6.4375 16.9241 6.4375H15.1841C15.0241 5.7975 14.6941 5.2575 14.1941 4.8175C13.6941 4.3775 13.1041 4.1575 12.4241 4.1575ZM12.4241 5.2975C12.9041 5.2975 13.3041 5.4675 13.6241 5.8075C13.9441 6.1475 14.1041 6.5475 14.1041 7.0075C14.1041 7.4675 13.9441 7.8575 13.6241 8.1775C13.3041 8.4975 12.9041 8.6575 12.4241 8.6575C11.9441 8.6575 11.5441 8.4975 11.2241 8.1775C10.9041 7.8575 10.7441 7.4675 10.7441 7.0075C10.7441 6.5475 10.9041 6.1475 11.2241 5.8075C11.5441 5.4675 11.9441 5.2975 12.4241 5.2975ZM6.78414 9.7975C6.10414 9.7975 5.51414 10.0075 5.01414 10.4275C4.51414 10.8475 4.18414 11.3975 4.02414 12.0775H2.28414C2.12414 12.0775 1.99414 12.1275 1.89414 12.2275C1.79414 12.3275 1.74414 12.4575 1.74414 12.6175C1.74414 12.7775 1.79414 12.9075 1.89414 13.0075C1.99414 13.1075 2.12414 13.1575 2.28414 13.1575H4.02414C4.18414 13.8375 4.51414 14.3875 5.01414 14.8075C5.51414 15.2275 6.10414 15.4375 6.78414 15.4375C7.46414 15.4375 8.06414 15.2275 8.58414 14.8075C9.10414 14.3875 9.42414 13.8375 9.54414 13.1575H16.9241C17.0841 13.1575 17.2141 13.1075 17.3141 13.0075C17.4141 12.9075 17.4641 12.7775 17.4641 12.6175C17.4641 12.4575 17.4141 12.3275 17.3141 12.2275C17.2141 12.1275 17.0841 12.0775 16.9241 12.0775H9.54414C9.42414 11.3975 9.10414 10.8475 8.58414 10.4275C8.06414 10.0075 7.46414 9.7975 6.78414 9.7975ZM6.78414 10.9375C7.26414 10.9375 7.66414 11.0975 7.98414 11.4175C8.30414 11.7375 8.46414 12.1375 8.46414 12.6175C8.46414 13.0975 8.30414 13.4975 7.98414 13.8175C7.66414 14.1375 7.26414 14.2975 6.78414 14.2975C6.30414 14.2975 5.90414 14.1375 5.58414 13.8175C5.26414 13.4975 5.10414 13.0975 5.10414 12.6175C5.10414 12.1375 5.26414 11.7375 5.58414 11.4175C5.90414 11.0975 6.30414 10.9375 6.78414 10.9375Z" fill="#FFD858"/>
</g>
</svg>
