<svg width="20" height="21" viewBox="0 0 20 21" fill="none" xmlns="http://www.w3.org/2000/svg">
<g id="Icon" clip-path="url(#clip0_749_17883)">
<path id="Vector" d="M16.1334 2.93177C15.2889 2.13177 14.3445 1.50955 13.3 1.0651C12.2556 0.620659 11.1556 0.398436 10 0.398436C8.84449 0.398436 7.73337 0.620659 6.66671 1.0651C5.60004 1.50955 4.66671 2.13177 3.86671 2.93177C3.06671 3.73177 2.44449 4.6651 2.00004 5.73177C1.5556 6.79844 1.33337 7.90955 1.33337 9.0651C1.33337 10.2207 1.5556 11.3207 2.00004 12.3651C2.44449 13.4095 3.06671 14.354 3.86671 15.1984L8.46671 19.7984C8.86671 20.1984 9.36671 20.3984 9.96671 20.3984C10.5667 20.3984 11.0889 20.1984 11.5334 19.7984L16.1334 15.1984C16.9334 14.354 17.5556 13.4095 18 12.3651C18.4445 11.3207 18.6667 10.2207 18.6667 9.0651C18.6667 7.90955 18.4445 6.79844 18 5.73177C17.5556 4.6651 16.9334 3.73177 16.1334 2.93177ZM15.2667 14.3318L10.6667 18.9318C10.4889 19.1095 10.2667 19.1984 10 19.1984C9.73337 19.1984 9.48893 19.1095 9.26671 18.9318L4.66671 14.3318C3.9556 13.6207 3.42226 12.8095 3.06671 11.8984C2.71115 10.9873 2.53337 10.0318 2.53337 9.03177C2.53337 8.03177 2.71115 7.07621 3.06671 6.1651C3.42226 5.25399 3.9556 4.45399 4.66671 3.7651C5.37782 3.07621 6.18893 2.54288 7.10004 2.1651C8.01115 1.78732 8.96671 1.59844 9.96671 1.59844C10.9667 1.59844 11.9223 1.78732 12.8334 2.1651C13.7445 2.54288 14.5556 3.0651 15.2667 3.73177C16.2445 4.70955 16.9 5.84288 17.2334 7.13177C17.5667 8.42066 17.5667 9.70955 17.2334 10.9984C16.9 12.2873 16.2445 13.3984 15.2667 14.3318ZM10 5.93177C9.1556 5.93177 8.42226 6.24288 7.80004 6.8651C7.17782 7.48733 6.86671 8.22066 6.86671 9.0651C6.86671 9.90955 7.17782 10.6318 7.80004 11.2318C8.42226 11.8318 9.1556 12.1318 10 12.1318C10.8445 12.1318 11.5667 11.8318 12.1667 11.2318C12.7667 10.6318 13.0667 9.90955 13.0667 9.0651C13.0667 8.22066 12.7667 7.48733 12.1667 6.8651C11.5667 6.24288 10.8445 5.93177 10 5.93177ZM10 10.9984C9.46671 10.9984 9.01115 10.8095 8.63337 10.4318C8.2556 10.054 8.06671 9.59844 8.06671 9.0651C8.06671 8.53177 8.2556 8.07621 8.63337 7.69844C9.01115 7.32066 9.46671 7.13177 10 7.13177C10.5334 7.13177 10.9889 7.32066 11.3667 7.69844C11.7445 8.07621 11.9334 8.53177 11.9334 9.0651C11.9334 9.59844 11.7445 10.054 11.3667 10.4318C10.9889 10.8095 10.5334 10.9984 10 10.9984Z" fill="white"/>
</g>
<defs>
<clipPath id="clip0_749_17883">
<rect width="20" height="20" fill="white" transform="matrix(1 0 0 -1 0 20.3984)"/>
</clipPath>
</defs>
</svg>
