<svg width="21" height="21" viewBox="0 0 21 21" fill="none" xmlns="http://www.w3.org/2000/svg">
<g id="Icon" clip-path="url(#clip0_749_16156)">
<path id="Vector" d="M16.6257 19.1984H14.2257C14.0924 19.1984 13.959 19.2651 13.8257 19.3984C13.6924 19.5318 13.6257 19.6762 13.6257 19.8318C13.6257 19.9873 13.6924 20.1207 13.8257 20.2318C13.959 20.3429 14.0924 20.3984 14.2257 20.3984H16.6257C16.8035 20.3984 16.9479 20.3429 17.059 20.2318C17.1701 20.1207 17.2257 19.9873 17.2257 19.8318C17.2257 19.6762 17.1701 19.5318 17.059 19.3984C16.9479 19.2651 16.8035 19.1984 16.6257 19.1984ZM11.8924 19.1984H9.55903C9.38126 19.1984 9.23681 19.2651 9.1257 19.3984C9.01459 19.5318 8.95903 19.6762 8.95903 19.8318C8.95903 19.9873 9.01459 20.1207 9.1257 20.2318C9.23681 20.3429 9.38126 20.3984 9.55903 20.3984H11.8924C12.0701 20.3984 12.2146 20.3429 12.3257 20.2318C12.4368 20.1207 12.4924 19.9873 12.4924 19.8318C12.4924 19.6762 12.4368 19.5318 12.3257 19.3984C12.2146 19.2651 12.0701 19.1984 11.8924 19.1984ZM20.159 8.59844C20.0257 8.59844 19.8924 8.65399 19.759 8.7651C19.6257 8.87621 19.559 9.02066 19.559 9.19844V11.5318C19.559 11.7095 19.6257 11.854 19.759 11.9651C19.8924 12.0762 20.0368 12.1318 20.1924 12.1318C20.3479 12.1318 20.4813 12.0762 20.5924 11.9651C20.7035 11.854 20.759 11.7095 20.759 11.5318V9.19844C20.759 9.02066 20.7035 8.87621 20.5924 8.7651C20.4813 8.65399 20.3368 8.59844 20.159 8.59844ZM20.159 13.2651C20.0257 13.2651 19.8924 13.3318 19.759 13.4651C19.6257 13.5984 19.559 13.7318 19.559 13.8651V16.1984C19.559 16.3762 19.6257 16.5207 19.759 16.6318C19.8924 16.7429 20.0368 16.7984 20.1924 16.7984C20.3479 16.7984 20.4813 16.7429 20.5924 16.6318C20.7035 16.5207 20.759 16.3762 20.759 16.1984V13.8651C20.759 13.7318 20.7035 13.5984 20.5924 13.4651C20.4813 13.3318 20.3368 13.2651 20.159 13.2651ZM7.2257 19.1984H6.6257V18.6651C6.6257 18.4873 6.57014 18.3429 6.45903 18.2318C6.34792 18.1207 6.20348 18.0651 6.0257 18.0651C5.84792 18.0651 5.70348 18.1207 5.59237 18.2318C5.48126 18.3429 5.4257 18.4873 5.4257 18.6651V19.7984C5.4257 19.9762 5.48126 20.1207 5.59237 20.2318C5.70348 20.3429 5.84792 20.3984 6.0257 20.3984H7.2257C7.35903 20.3984 7.48126 20.3429 7.59237 20.2318C7.70348 20.1207 7.75903 19.9873 7.75903 19.8318C7.75903 19.6762 7.70348 19.5318 7.59237 19.3984C7.48126 19.2651 7.35903 19.1984 7.2257 19.1984ZM20.159 5.0651H19.0257C18.8479 5.0651 18.7035 5.12066 18.5924 5.23177C18.4813 5.34288 18.4257 5.48733 18.4257 5.6651C18.4257 5.84288 18.4813 5.98733 18.5924 6.09844C18.7035 6.20955 18.8479 6.2651 19.0257 6.2651H19.559V6.8651C19.559 6.99844 19.6257 7.12066 19.759 7.23177C19.8924 7.34288 20.0368 7.39844 20.1924 7.39844C20.3479 7.39844 20.4813 7.34288 20.5924 7.23177C20.7035 7.12066 20.759 6.99844 20.759 6.8651V5.6651C20.759 5.48733 20.7035 5.34288 20.5924 5.23177C20.4813 5.12066 20.3368 5.0651 20.159 5.0651ZM20.159 18.0651C20.0257 18.0651 19.8924 18.1207 19.759 18.2318C19.6257 18.3429 19.559 18.4873 19.559 18.6651V19.1984H19.0257C18.8479 19.1984 18.7035 19.2651 18.5924 19.3984C18.4813 19.5318 18.4257 19.6762 18.4257 19.8318C18.4257 19.9873 18.4813 20.1207 18.5924 20.2318C18.7035 20.3429 18.8479 20.3984 19.0257 20.3984H20.159C20.3368 20.3984 20.4813 20.3429 20.5924 20.2318C20.7035 20.1207 20.759 19.9762 20.759 19.7984V18.6651C20.759 18.4873 20.7035 18.3429 20.5924 18.2318C20.4813 18.1207 20.3368 18.0651 20.159 18.0651ZM16.6257 5.0651H16.0257V0.998436C16.0257 0.82066 15.959 0.676214 15.8257 0.565104C15.6924 0.453993 15.559 0.398436 15.4257 0.398436H1.35903C1.18126 0.398436 1.03681 0.453993 0.9257 0.565104C0.814589 0.676214 0.759033 0.82066 0.759033 0.998436V15.0651C0.759033 15.1984 0.814589 15.3318 0.9257 15.4651C1.03681 15.5984 1.18126 15.6651 1.35903 15.6651H5.4257V16.1984C5.4257 16.3762 5.48126 16.5207 5.59237 16.6318C5.70348 16.7429 5.84792 16.7984 6.0257 16.7984C6.20348 16.7984 6.34792 16.7429 6.45903 16.6318C6.57014 16.5207 6.6257 16.3762 6.6257 16.1984V6.2651H16.6257C16.8035 6.2651 16.9479 6.20955 17.059 6.09844C17.1701 5.98733 17.2257 5.84288 17.2257 5.6651C17.2257 5.48733 17.1701 5.34288 17.059 5.23177C16.9479 5.12066 16.8035 5.0651 16.6257 5.0651ZM14.8257 5.0651H6.0257C5.84792 5.0651 5.70348 5.12066 5.59237 5.23177C5.48126 5.34288 5.4257 5.48733 5.4257 5.6651V14.4651H1.95903V1.59844H14.8257V5.0651Z" fill="white"/>
</g>
<defs>
<clipPath id="clip0_749_16156">
<rect width="20" height="20" fill="white" transform="matrix(1 0 0 -1 0.759033 20.3984)"/>
</clipPath>
</defs>
</svg>
